<mxfile host="app.diagrams.net" modified="2023-03-08T00:35:36.494Z" agent="5.0 (Windows NT 10.0; Win64; x64) AppleWebKit/537.36 (KHTML, like Gecko) Chrome/110.0.0.0 Safari/537.36" etag="_Axh5qQNXrrJIJQc5ha2" version="21.0.2" type="github">
  <diagram id="C5RBs43oDa-KdzZeNtuy" name="Page-1">
    <mxGraphModel dx="677" dy="372" grid="1" gridSize="10" guides="1" tooltips="1" connect="1" arrows="1" fold="1" page="1" pageScale="1" pageWidth="827" pageHeight="1169" math="0" shadow="0">
      <root>
        <mxCell id="WIyWlLk6GJQsqaUBKTNV-0" />
        <mxCell id="WIyWlLk6GJQsqaUBKTNV-1" parent="WIyWlLk6GJQsqaUBKTNV-0" />
        <mxCell id="oUsA-M0eHrD9d1wJYv6w-3" value="" style="group" vertex="1" connectable="0" parent="WIyWlLk6GJQsqaUBKTNV-1">
          <mxGeometry x="380" y="620" width="80" height="80" as="geometry" />
        </mxCell>
        <mxCell id="oUsA-M0eHrD9d1wJYv6w-4" value="" style="ellipse;whiteSpace=wrap;html=1;aspect=fixed;" vertex="1" parent="oUsA-M0eHrD9d1wJYv6w-3">
          <mxGeometry width="80" height="80" as="geometry" />
        </mxCell>
        <mxCell id="oUsA-M0eHrD9d1wJYv6w-5" value="" style="ellipse;whiteSpace=wrap;html=1;aspect=fixed;fillColor=#000000;" vertex="1" parent="oUsA-M0eHrD9d1wJYv6w-3">
          <mxGeometry x="20" y="20" width="40" height="40" as="geometry" />
        </mxCell>
        <mxCell id="oUsA-M0eHrD9d1wJYv6w-10" value="" style="edgeStyle=orthogonalEdgeStyle;rounded=0;orthogonalLoop=1;jettySize=auto;html=1;" edge="1" parent="WIyWlLk6GJQsqaUBKTNV-1" source="oUsA-M0eHrD9d1wJYv6w-1" target="oUsA-M0eHrD9d1wJYv6w-9">
          <mxGeometry relative="1" as="geometry" />
        </mxCell>
        <mxCell id="oUsA-M0eHrD9d1wJYv6w-1" value="" style="ellipse;whiteSpace=wrap;html=1;aspect=fixed;fillColor=#000000;" vertex="1" parent="WIyWlLk6GJQsqaUBKTNV-1">
          <mxGeometry x="394" y="60" width="40" height="40" as="geometry" />
        </mxCell>
        <mxCell id="oUsA-M0eHrD9d1wJYv6w-12" value="" style="edgeStyle=orthogonalEdgeStyle;rounded=0;orthogonalLoop=1;jettySize=auto;html=1;" edge="1" parent="WIyWlLk6GJQsqaUBKTNV-1" source="oUsA-M0eHrD9d1wJYv6w-9" target="oUsA-M0eHrD9d1wJYv6w-11">
          <mxGeometry relative="1" as="geometry" />
        </mxCell>
        <mxCell id="oUsA-M0eHrD9d1wJYv6w-9" value="Recepciona Clientes!" style="rounded=1;whiteSpace=wrap;html=1;" vertex="1" parent="WIyWlLk6GJQsqaUBKTNV-1">
          <mxGeometry x="354" y="170" width="120" height="60" as="geometry" />
        </mxCell>
        <mxCell id="oUsA-M0eHrD9d1wJYv6w-14" value="" style="edgeStyle=orthogonalEdgeStyle;rounded=0;orthogonalLoop=1;jettySize=auto;html=1;" edge="1" parent="WIyWlLk6GJQsqaUBKTNV-1" source="oUsA-M0eHrD9d1wJYv6w-11" target="oUsA-M0eHrD9d1wJYv6w-13">
          <mxGeometry relative="1" as="geometry" />
        </mxCell>
        <mxCell id="oUsA-M0eHrD9d1wJYv6w-16" value="" style="edgeStyle=orthogonalEdgeStyle;rounded=0;orthogonalLoop=1;jettySize=auto;html=1;" edge="1" parent="WIyWlLk6GJQsqaUBKTNV-1" source="oUsA-M0eHrD9d1wJYv6w-11">
          <mxGeometry relative="1" as="geometry">
            <mxPoint x="560" y="340" as="targetPoint" />
          </mxGeometry>
        </mxCell>
        <mxCell id="oUsA-M0eHrD9d1wJYv6w-11" value="" style="rhombus;whiteSpace=wrap;html=1;rounded=1;" vertex="1" parent="WIyWlLk6GJQsqaUBKTNV-1">
          <mxGeometry x="374" y="300" width="80" height="80" as="geometry" />
        </mxCell>
        <mxCell id="oUsA-M0eHrD9d1wJYv6w-13" value="Informa os valores p/h" style="whiteSpace=wrap;html=1;rounded=1;" vertex="1" parent="WIyWlLk6GJQsqaUBKTNV-1">
          <mxGeometry x="160" y="310" width="120" height="60" as="geometry" />
        </mxCell>
        <mxCell id="oUsA-M0eHrD9d1wJYv6w-15" value="Manobra até a vaga mensal!" style="whiteSpace=wrap;html=1;rounded=1;" vertex="1" parent="WIyWlLk6GJQsqaUBKTNV-1">
          <mxGeometry x="540" y="460" width="120" height="60" as="geometry" />
        </mxCell>
        <mxCell id="oUsA-M0eHrD9d1wJYv6w-17" value="verificar clientes!" style="text;html=1;strokeColor=none;fillColor=none;align=center;verticalAlign=middle;whiteSpace=wrap;rounded=0;" vertex="1" parent="WIyWlLk6GJQsqaUBKTNV-1">
          <mxGeometry x="384" y="380" width="60" height="30" as="geometry" />
        </mxCell>
        <mxCell id="oUsA-M0eHrD9d1wJYv6w-18" value="Mensalista" style="text;html=1;strokeColor=none;fillColor=none;align=center;verticalAlign=middle;whiteSpace=wrap;rounded=0;" vertex="1" parent="WIyWlLk6GJQsqaUBKTNV-1">
          <mxGeometry x="460" y="290" width="60" height="30" as="geometry" />
        </mxCell>
        <mxCell id="oUsA-M0eHrD9d1wJYv6w-19" value="Avulso" style="text;html=1;strokeColor=none;fillColor=none;align=center;verticalAlign=middle;whiteSpace=wrap;rounded=0;" vertex="1" parent="WIyWlLk6GJQsqaUBKTNV-1">
          <mxGeometry x="300" y="290" width="60" height="30" as="geometry" />
        </mxCell>
        <mxCell id="oUsA-M0eHrD9d1wJYv6w-22" value="" style="edgeStyle=orthogonalEdgeStyle;rounded=0;orthogonalLoop=1;jettySize=auto;html=1;" edge="1" parent="WIyWlLk6GJQsqaUBKTNV-1" source="oUsA-M0eHrD9d1wJYv6w-20" target="oUsA-M0eHrD9d1wJYv6w-15">
          <mxGeometry relative="1" as="geometry" />
        </mxCell>
        <mxCell id="oUsA-M0eHrD9d1wJYv6w-24" value="" style="edgeStyle=orthogonalEdgeStyle;rounded=0;orthogonalLoop=1;jettySize=auto;html=1;" edge="1" parent="WIyWlLk6GJQsqaUBKTNV-1" source="oUsA-M0eHrD9d1wJYv6w-20" target="oUsA-M0eHrD9d1wJYv6w-23">
          <mxGeometry relative="1" as="geometry" />
        </mxCell>
        <mxCell id="oUsA-M0eHrD9d1wJYv6w-20" value="" style="rhombus;whiteSpace=wrap;html=1;rounded=1;" vertex="1" parent="WIyWlLk6GJQsqaUBKTNV-1">
          <mxGeometry x="560" y="300" width="80" height="80" as="geometry" />
        </mxCell>
        <mxCell id="oUsA-M0eHrD9d1wJYv6w-21" value="verificar entrada ou saida!" style="text;html=1;strokeColor=none;fillColor=none;align=center;verticalAlign=middle;whiteSpace=wrap;rounded=0;" vertex="1" parent="WIyWlLk6GJQsqaUBKTNV-1">
          <mxGeometry x="650" y="320" width="60" height="30" as="geometry" />
        </mxCell>
        <mxCell id="oUsA-M0eHrD9d1wJYv6w-23" value="Entrega o veículo!" style="whiteSpace=wrap;html=1;rounded=1;" vertex="1" parent="WIyWlLk6GJQsqaUBKTNV-1">
          <mxGeometry x="540" y="170" width="120" height="60" as="geometry" />
        </mxCell>
      </root>
    </mxGraphModel>
  </diagram>
</mxfile>
